<svg height='100px' width='100px'  fill="#FFFFFF" xmlns="http://www.w3.org/2000/svg" xmlns:xlink="http://www.w3.org/1999/xlink" version="1.1" x="0px" y="0px" viewBox="0 0 100 100" style="enable-background:new 0 0 100 100;" xml:space="preserve"><path d="M88.3,11.7c-2.2-2.2-12.3,2.7-16,6.4L60.2,30.2l-38.1-9.6c-3.2-1.1-6.4-0.5-8.5,1.6l-2.6,2.6l36.8,17.8l-1.3,1.3  c-0.4,0.4-3.3,3.3-4.3,4.3c-0.7,0.7-1.3,1.4-1.9,2.2L27.2,68.1l-10.9-1.6l-2.9,2.9l17.3,17.3l2.9-2.9l-1.6-10.9l17.8-13.2  c0.7-0.6,1.5-1.2,2.2-1.9c1-0.9,3.5-3.5,4.2-4.2l1.3-1.3l0.9,1.5l17,35.1l2.6-2.6c2.1-2.1,2.7-5.3,1.6-8.4l-9.6-38.1l12.1-12.1  C85.6,24,90.5,13.8,88.3,11.7z"></path></svg>