<svg height='100px' width='100px'  fill="#FFFFFF" xmlns="http://www.w3.org/2000/svg" xmlns:xlink="http://www.w3.org/1999/xlink" viewBox="0 0 128 128" version="1.1" x="0px" y="0px"><title>Icon/admin/darkblue Copy</title><desc>Created with Sketch.</desc><g stroke="none" stroke-width="1" fill="none" fill-rule="evenodd"><path d="M123,53.76 C122.887326,53.0977082 122.348035,52.5911009 121.68,52.52 L108,51.06 C106.868988,47.5829392 105.32815,44.2528507 103.41,41.14 L112.33,30.61 C112.776489,30.0829999 112.805388,29.3192332 112.4,28.76 C108.226751,23.0427629 103.073825,18.1099025 97.18,14.19 C96.6355976,13.8281371 95.9195386,13.8605014 95.41,14.27 L83.77,23.57 C81.3805763,22.4384812 78.8980517,21.5150623 76.35,20.81 L74.42,6.14 C74.3341911,5.47736181 73.820436,4.95137451 73.16,4.85 C66.7302983,3.86186633 60.1836448,3.91251089 53.77,5 C53.1337669,5.10864014 52.6383649,5.61209749 52.54,6.25 L50.23,21.23 C47.5649985,22.0604812 44.9810278,23.1315572 42.51,24.43 L31.62,15 C31.1018468,14.549458 30.343929,14.5082668 29.78,14.9 C24.1874704,18.8010279 19.30082,23.6268065 15.33,29.17 C14.9322016,29.7228753 14.9568408,30.4743692 15.39,31 L24.19,41.88 C22.4856314,44.7606895 21.1007648,47.8187969 20.06,51 L6.26,52.85 C5.61517672,52.9456344 5.10593869,53.4467893 5,54.09 C3.83537623,61.1129839 3.92000888,68.2864476 5.25,75.28 C5.37347775,75.9272974 5.90495362,76.4182026 6.56,76.49 L19.56,77.9 C20.3294897,80.6909053 21.3607312,83.4029366 22.64,86 L14.31,95.29 C13.8551986,95.7993095 13.8017634,96.5515129 14.18,97.12 C18.1379149,103.063576 23.1263636,108.251834 28.91,112.44 C29.4350214,112.820343 30.1449786,112.820343 30.67,112.44 L40.62,105.22 C43.8341647,107.108663 47.2660033,108.599599 50.84,109.66 L51.93,121.48 C51.990408,122.149602 52.4889847,122.697219 53.15,122.82 C60.4589533,124.152062 67.950882,124.124942 75.25,122.74 C75.8972974,122.616522 76.3882026,122.085046 76.46,121.43 L77.75,109.43 C81.3731874,108.30205 84.8428822,106.730107 88.08,104.75 L97.59,112.13 C98.1253599,112.535022 98.8646401,112.535022 99.4,112.13 C105.130016,107.953826 110.073345,102.793804 114,96.89 C114.391552,96.2994728 114.316491,95.5155019 113.82,95.01 L105.24,86.28 C106.744592,83.3226721 107.924793,80.2112323 108.76,77 L121.47,76.18 C122.158002,76.1358497 122.72732,75.628414 122.85,74.95 C124.146233,67.9504961 124.197012,60.7771532 123,53.76 Z M64,91.41 C49.0883118,91.41 37,79.3216882 37,64.41 C37,49.4983118 49.0883118,37.41 64,37.41 C78.9116882,37.41 91,49.4983118 91,64.41 C91,71.5708452 88.1553653,78.4384009 83.0918831,83.5018831 C78.0284009,88.5653653 71.1608452,91.41 64,91.41 Z" fill="#FFFFFF" fill-rule="nonzero"></path></g></svg>