<svg height='100px' width='100px'  fill="#FFFFFF" xmlns="http://www.w3.org/2000/svg" xmlns:xlink="http://www.w3.org/1999/xlink" version="1.1" x="0px" y="0px" viewBox="0 0 100 100" enable-background="new 0 0 100 100" xml:space="preserve"><path d="M30.339,72.312c0.509-1.851,1.018-3.702,1.573-5.553c0.648-2.129,1.249-2.407,3.193-1.388  c3.332,1.758,6.895,2.73,10.644,3.193c2.406,0.278,4.767,0.046,6.988-0.926c4.165-1.805,4.813-6.618,1.296-9.533  c-1.203-0.972-2.545-1.712-3.98-2.314c-3.656-1.62-7.451-2.823-10.875-4.859c-5.553-3.332-9.117-7.913-8.7-14.716  c0.463-7.682,4.813-12.449,11.847-14.994c2.916-1.064,2.916-1.018,2.916-4.026c0-1.018,0-2.036,0-3.1  c0.046-2.268,0.463-2.684,2.73-2.73c0.694,0,1.388,0,2.129,0c4.859,0,4.859,0,4.859,4.859c0,3.425,0,3.425,3.425,3.98  c2.638,0.417,5.09,1.203,7.543,2.268c1.342,0.602,1.851,1.527,1.435,2.916c-0.602,2.083-1.157,4.211-1.851,6.294  c-0.648,1.944-1.249,2.268-3.147,1.342c-3.795-1.851-7.775-2.591-11.94-2.36c-1.111,0.046-2.175,0.185-3.193,0.648  c-3.61,1.573-4.211,5.553-1.111,8.006c1.574,1.249,3.332,2.129,5.183,2.915c3.193,1.342,6.433,2.592,9.441,4.258  c9.626,5.322,12.264,17.493,5.414,25.777c-2.453,3.008-5.646,4.998-9.394,6.016c-1.62,0.463-2.36,1.296-2.268,3.008  c0.093,1.666,0,3.332,0,4.998c0,1.481-0.74,2.268-2.221,2.314c-1.805,0.046-3.61,0.046-5.368,0  c-1.573-0.046-2.314-0.926-2.314-2.453c0-1.203,0-2.453-0.046-3.656c-0.046-2.684-0.093-2.777-2.684-3.193  c-3.286-0.509-6.571-1.296-9.58-2.73C29.922,75.412,29.645,74.811,30.339,72.312z"></path></svg>