<svg height='100px' width='100px'  fill="#FFFFFF" xmlns="http://www.w3.org/2000/svg" xmlns:xlink="http://www.w3.org/1999/xlink" version="1.1" x="0px" y="0px" viewBox="0 0 512 512" style="enable-background:new 0 0 512 512;" xml:space="preserve"><g><g><path d="M478.681,91.19L197.279,192.495L39.578,249.569c-0.06,0.023-0.12,0.043-0.181,0.062    c-4.879,1.559-6.559,2.892-7.073,3.422c0.385,0.658,1.774,2.448,6.5,5.297c0.081,0.049,0.161,0.1,0.239,0.153    c21.449,14.648,42.897,29.263,64.346,43.875l298.094-156.975c2.311-1.219,5.167-0.451,6.559,1.756    c1.393,2.208,0.854,5.115-1.239,6.676L154.267,342.192v74.431c0,0.126-0.005,0.253-0.014,0.379    c-0.066,0.874-0.078,1.577-0.061,2.136c0.064-0.044,0.131-0.091,0.199-0.14c0.056-0.04,0.113-0.079,0.171-0.117    c15.557-10.143,31.138-20.335,46.705-30.517l11.611-7.594c1.69-1.105,3.88-1.086,5.55,0.052l56.023,38.144    c1.4,0.889,3.249,2.057,4.022,2.22c0.276-0.182,1.16-0.909,2.635-3.443L479.675,90.815    C479.307,90.956,478.972,91.084,478.681,91.19z"></path></g></g></svg>