<svg height='100px' width='100px'  fill="#FFFFFF" xmlns="http://www.w3.org/2000/svg" xmlns:xlink="http://www.w3.org/1999/xlink" version="1.1" x="0px" y="0px" viewBox="0 0 100 100" enable-background="new 0 0 100 100" xml:space="preserve"><g><ellipse cx="50" cy="75.229" rx="2.704" ry="19.771"></ellipse><path d="M50,5c-25.939,19.004-16.403,59.046-9.345,78.37h3.839c-0.126-2.328-0.198-5.013-0.198-8.141   c0-22.771,3.711-22.771,5.704-22.771s5.704,0,5.704,22.771c0,3.128-0.072,5.813-0.198,8.141h3.839   C66.403,64.046,75.939,24.004,50,5z M50,44.126c-4.902,0-8.875-3.974-8.875-8.875c0-4.902,3.973-8.875,8.875-8.875   s8.875,3.973,8.875,8.875C58.875,40.153,54.902,44.126,50,44.126z"></path><path d="M68.804,59.023c-1.148,7.321-2.917,13.994-4.569,19.253c3.893,2.779,7.726,7.372,9.728,14.935   C81.91,75.72,76.602,64.444,68.804,59.023z"></path><path d="M31.197,59.023c-7.798,5.421-13.106,16.697-5.159,34.188c2.002-7.564,5.835-12.156,9.728-14.935   C34.114,73.017,32.344,66.343,31.197,59.023z"></path></g></svg>